<mxfile host="app.diagrams.net" modified="2023-10-07T13:13:06.729Z" agent="Mozilla/5.0 (Windows NT 10.0; Win64; x64) AppleWebKit/537.36 (KHTML, like Gecko) Chrome/115.0.0.0 Safari/537.36 Edg/115.0.1901.200" version="21.6.9" etag="gOmaTZw4j-xgVtJaC1Lj" type="github">
  <diagram name="第 1 页" id="wv4L2K2bURftCcu1W5rY">
    <mxGraphModel>
      <root>
        <mxCell id="0" />
        <mxCell id="1" parent="0" />
      </root>
    </mxGraphModel>
  </diagram>
</mxfile>
